<?xml version="1.0" encoding="UTF-8" standalone="no"?>
<!-- Created with Inkscape (http://www.inkscape.org/) -->

<svg
   width="24"
   height="24"
   viewBox="0 0 24 24"
   version="1.1"
   id="svg1"
   inkscape:version="1.4.2 (ebf0e940d0, 2025-05-08)"
   sodipodi:docname="system.svg"
   xmlns:inkscape="http://www.inkscape.org/namespaces/inkscape"
   xmlns:sodipodi="http://sodipodi.sourceforge.net/DTD/sodipodi-0.dtd"
   xmlns="http://www.w3.org/2000/svg"
   xmlns:svg="http://www.w3.org/2000/svg">
  <sodipodi:namedview
     id="namedview1"
     pagecolor="#000000"
     bordercolor="#000000"
     borderopacity="0.25"
     inkscape:showpageshadow="2"
     inkscape:pageopacity="0.0"
     inkscape:pagecheckerboard="0"
     inkscape:deskcolor="#d1d1d1"
     inkscape:document-units="px"
     inkscape:zoom="64"
     inkscape:cx="12.492187"
     inkscape:cy="13.914062"
     inkscape:window-width="2480"
     inkscape:window-height="1360"
     inkscape:window-x="0"
     inkscape:window-y="0"
     inkscape:window-maximized="1"
     inkscape:current-layer="layer1"
     showgrid="true">
    <inkscape:grid
       id="grid1"
       units="px"
       originx="0"
       originy="0"
       spacingx="1"
       spacingy="1"
       empcolor="#da0000"
       empopacity="0.85882353"
       color="#0099e5"
       opacity="0.65098039"
       empspacing="4"
       enabled="true"
       visible="true"
       dotted="false" />
  </sodipodi:namedview>
  <defs
     id="defs1">
    <inkscape:path-effect
       effect="fillet_chamfer"
       id="path-effect3"
       is_visible="true"
       lpeversion="1"
       nodesatellites_param="F,0,0,1,0,0.5,0,1 @ F,0,0,1,0,0.5,0,1 @ F,0,0,1,0,0.5,0,1 @ F,0,0,1,0,0.5,0,1 | F,0,0,1,0,0.5,0,1 @ F,0,0,1,0,0.5,0,1 @ F,0,0,1,0,0.5,0,1 @ F,0,0,1,0,0.5,0,1 | F,0,0,1,0,0.5,0,1 @ F,0,0,1,0,0.5,0,1 @ F,0,0,1,0,0.5,0,1 @ F,0,0,1,0,0.5,0,1 | F,0,0,1,0,0.5,0,1 @ F,0,0,1,0,0.5,0,1 @ F,0,0,1,0,0.5,0,1 @ F,0,0,1,0,0.5,0,1"
       radius="0.5"
       unit="px"
       method="auto"
       mode="F"
       chamfer_steps="1"
       flexible="false"
       use_knot_distance="true"
       apply_no_radius="true"
       apply_with_radius="true"
       only_selected="false"
       hide_knots="false" />
    <inkscape:path-effect
       effect="fillet_chamfer"
       id="path-effect2"
       is_visible="true"
       lpeversion="1"
       nodesatellites_param="F,0,0,1,0,0.5,0,1 @ F,0,0,1,0,0.5,0,1 @ F,0,0,1,0,0.5,0,1 @ F,0,0,1,0,0.5,0,1"
       radius="0.5"
       unit="px"
       method="auto"
       mode="F"
       chamfer_steps="1"
       flexible="false"
       use_knot_distance="true"
       apply_no_radius="true"
       apply_with_radius="true"
       only_selected="false"
       hide_knots="false" />
    <inkscape:path-effect
       effect="fillet_chamfer"
       id="path-effect1"
       is_visible="true"
       lpeversion="1"
       nodesatellites_param="F,0,0,1,0,0,0,1 @ F,0,0,1,0,0,0,1 @ F,0,0,1,0,0,0,1 @ F,0,0,1,0,0,0,1 @ F,0,0,1,0,0,0,1 @ F,0,0,1,0,0,0,1 @ F,0,0,1,0,0,0,1"
       radius="1"
       unit="px"
       method="auto"
       mode="F"
       chamfer_steps="1"
       flexible="false"
       use_knot_distance="true"
       apply_no_radius="true"
       apply_with_radius="true"
       only_selected="false"
       hide_knots="false" />
    <inkscape:path-effect
       effect="fillet_chamfer"
       id="path-effect2-7"
       is_visible="true"
       lpeversion="1"
       nodesatellites_param="F,0,0,1,0,0.5,0,1 @ F,0,0,1,0,0.5,0,1 @ F,0,0,1,0,0.5,0,1 @ F,0,0,1,0,0.5,0,1"
       radius="0.5"
       unit="px"
       method="auto"
       mode="F"
       chamfer_steps="1"
       flexible="false"
       use_knot_distance="true"
       apply_no_radius="true"
       apply_with_radius="true"
       only_selected="false"
       hide_knots="false" />
    <inkscape:path-effect
       effect="fillet_chamfer"
       id="path-effect2-6"
       is_visible="true"
       lpeversion="1"
       nodesatellites_param="F,0,0,1,0,0.5,0,1 @ F,0,0,1,0,0.5,0,1 @ F,0,0,1,0,0.5,0,1 @ F,0,0,1,0,0.5,0,1"
       radius="0.5"
       unit="px"
       method="auto"
       mode="F"
       chamfer_steps="1"
       flexible="false"
       use_knot_distance="true"
       apply_no_radius="true"
       apply_with_radius="true"
       only_selected="false"
       hide_knots="false" />
    <inkscape:path-effect
       effect="fillet_chamfer"
       id="path-effect2-7-9"
       is_visible="true"
       lpeversion="1"
       nodesatellites_param="F,0,0,1,0,0.5,0,1 @ F,0,0,1,0,0.5,0,1 @ F,0,0,1,0,0.5,0,1 @ F,0,0,1,0,0.5,0,1"
       radius="0.5"
       unit="px"
       method="auto"
       mode="F"
       chamfer_steps="1"
       flexible="false"
       use_knot_distance="true"
       apply_no_radius="true"
       apply_with_radius="true"
       only_selected="false"
       hide_knots="false" />
    <inkscape:path-effect
       effect="fillet_chamfer"
       id="path-effect2-6-2"
       is_visible="true"
       lpeversion="1"
       nodesatellites_param="F,0,0,1,0,0.5,0,1 @ F,0,0,1,0,0.5,0,1 @ F,0,0,1,0,0.5,0,1 @ F,0,0,1,0,0.5,0,1"
       radius="0.5"
       unit="px"
       method="auto"
       mode="F"
       chamfer_steps="1"
       flexible="false"
       use_knot_distance="true"
       apply_no_radius="true"
       apply_with_radius="true"
       only_selected="false"
       hide_knots="false" />
    <inkscape:path-effect
       effect="fillet_chamfer"
       id="path-effect2-0"
       is_visible="true"
       lpeversion="1"
       nodesatellites_param="F,0,0,1,0,0.5,0,1 @ F,0,0,1,0,0.5,0,1 @ F,0,0,1,0,0.5,0,1 @ F,0,0,1,0,0.5,0,1"
       radius="0.5"
       unit="px"
       method="auto"
       mode="F"
       chamfer_steps="1"
       flexible="false"
       use_knot_distance="true"
       apply_no_radius="true"
       apply_with_radius="true"
       only_selected="false"
       hide_knots="false" />
  </defs>
  <g
     inkscape:label="Layer 1"
     inkscape:groupmode="layer"
     id="layer1">
    <path
       id="rect1"
       style="fill:#ffffff;stroke:#000000;stroke-width:0;stroke-dasharray:none"
       d="M 8.5,3 C 8.2238576,3 8,3.2238576 8,3.5 V 5 H 6 L 5,6 V 8 H 3.5 C 3.2238576,8 3,8.2238576 3,8.5 3,8.7761424 3.2238576,9 3.5,9 H 5 v 2.5 H 3.5 C 3.2238576,11.5 3,11.723858 3,12 c 0,0.276142 0.2238576,0.5 0.5,0.5 H 5 V 15 H 3.5 C 3.2238576,15 3,15.223858 3,15.5 3,15.776142 3.2238576,16 3.5,16 H 5 v 2 l 1,1 h 2 v 1.5 C 8,20.776142 8.2238576,21 8.5,21 8.7761424,21 9,20.776142 9,20.5 V 19 h 2.5 v 1.5 c 0,0.276142 0.223858,0.5 0.5,0.5 0.276142,0 0.5,-0.223858 0.5,-0.5 V 19 H 15 v 1.5 c 0,0.276142 0.223858,0.5 0.5,0.5 0.276142,0 0.5,-0.223858 0.5,-0.5 V 19 h 2 l 1,-1 v -2 h 1.5 C 20.776142,16 21,15.776142 21,15.5 21,15.223858 20.776142,15 20.5,15 H 19 v -2.5 h 1.5 c 0.276142,0 0.5,-0.223858 0.5,-0.5 0,-0.276142 -0.223858,-0.5 -0.5,-0.5 H 19 V 9 h 1.5 C 20.776142,9 21,8.7761424 21,8.5 21,8.2238576 20.776142,8 20.5,8 H 19 V 6 L 18,5 H 16 V 3.5 C 16,3.2238576 15.776142,3 15.5,3 15.223858,3 15,3.2238576 15,3.5 V 5 H 12.5 V 3.5 C 12.5,3.2238576 12.276142,3 12,3 11.723858,3 11.5,3.2238576 11.5,3.5 V 5 H 9 V 3.5 C 9,3.2238576 8.7761424,3 8.5,3 Z M 6,6 H 18 V 18 H 6 Z"
       sodipodi:nodetypes="ssccccsssccsssccsssccccsssccsssccsssccccsssccsssccsssccccsssccsssccssccccc" />
    <rect
       style="fill:#ffffff;stroke:#000000;stroke-width:0;stroke-dasharray:none"
       id="rect3"
       width="1"
       height="10"
       x="7"
       y="7" />
    <rect
       style="fill:#ffffff;stroke:#000000;stroke-width:0;stroke-dasharray:none"
       id="rect4"
       width="10"
       height="1"
       x="7"
       y="16" />
    <rect
       style="fill:#ffffff;stroke:#000000;stroke-width:0;stroke-dasharray:none"
       id="rect4-3"
       width="10"
       height="1"
       x="7"
       y="7" />
    <rect
       style="fill:#ffffff;stroke:#000000;stroke-width:0;stroke-dasharray:none"
       id="rect5"
       width="1"
       height="10"
       x="16"
       y="7" />
    <circle
       style="fill:#ffffff;stroke:#000000;stroke-width:0;stroke-dasharray:none"
       id="path5"
       cx="12"
       cy="12"
       r="3" />
  </g>
</svg>
